<?xml version="1.0" encoding="UTF-8" standalone="no"?>
<!DOCTYPE svg PUBLIC "-//W3C//DTD SVG 1.0//EN"
 "http://www.w3.org/TR/2001/REC-SVG-20010904/DTD/svg10.dtd" [
 <!ATTLIST svg xmlns:xlink CDATA #FIXED "http://www.w3.org/1999/xlink">
]>
<!-- Generated by Graphviz version 2.20.3 (Fri Oct 10 18:11:01 UTC 2008)
     For user: (ivan) Ivan Storck -->
<!-- Title: controllers_diagram Pages: 1 -->
<svg width="1153pt" height="1266pt"
 viewBox="0.00 0.00 1153.00 1266.00" xmlns="http://www.w3.org/2000/svg" xmlns:xlink="http://www.w3.org/1999/xlink">
<g id="graph0" class="graph" transform="scale(1 1) rotate(0) translate(4 1262)">
<title>controllers_diagram</title>
<polygon style="fill:white;stroke:white;" points="-4,4 -4,-1262 1149,-1262 1149,4 -4,4"/>
<!-- _diagram_info -->
<g id="node1" class="node"><title>_diagram_info</title>
<text text-anchor="start" x="921.5" y="-309.4" style="font-family:Times New Roman;font-size:11.00;">Controllers diagram</text>
<text text-anchor="start" x="921.5" y="-292.4" style="font-family:Times New Roman;font-size:11.00;">Date: Mar 16 2009 &#45; 23:15</text>
<text text-anchor="start" x="921.5" y="-275.4" style="font-family:Times New Roman;font-size:11.00;">Migration version: 20090308222018</text>
<text text-anchor="start" x="921.5" y="-258.4" style="font-family:Times New Roman;font-size:11.00;">Generated by RailRoad 0.5.0</text>
</g>
<!-- ArticlesController -->
<g id="node2" class="node"><title>ArticlesController</title>
<polyline style="fill:none;stroke:black;" points="13,-369 112,-369 "/>
<path style="fill:none;stroke:black;" d="M112,-369C118,-369 124,-375 124,-381"/>
<polyline style="fill:none;stroke:black;" points="124,-381 124,-625 "/>
<path style="fill:none;stroke:black;" d="M124,-625C124,-631 118,-637 112,-637"/>
<polyline style="fill:none;stroke:black;" points="112,-637 13,-637 "/>
<path style="fill:none;stroke:black;" d="M13,-637C7,-637 1,-631 1,-625"/>
<polyline style="fill:none;stroke:black;" points="1,-625 1,-381 "/>
<path style="fill:none;stroke:black;" d="M1,-381C1,-375 7,-369 13,-369"/>
<text text-anchor="middle" x="62" y="-619.9" style="font-family:Times New Roman;font-size:11.00;">ArticlesController</text>
<polyline style="fill:none;stroke:black;" points="1,-612 124,-612 "/>
<text text-anchor="start" x="8.5" y="-594.9" style="font-family:Times New Roman;font-size:11.00;">admin</text>
<text text-anchor="start" x="8.5" y="-577.9" style="font-family:Times New Roman;font-size:11.00;">create</text>
<text text-anchor="start" x="8.5" y="-560.9" style="font-family:Times New Roman;font-size:11.00;">destroy</text>
<text text-anchor="start" x="8.5" y="-543.9" style="font-family:Times New Roman;font-size:11.00;">edit</text>
<text text-anchor="start" x="8.5" y="-526.9" style="font-family:Times New Roman;font-size:11.00;">index</text>
<text text-anchor="start" x="8.5" y="-509.9" style="font-family:Times New Roman;font-size:11.00;">livesearch</text>
<text text-anchor="start" x="8.5" y="-492.9" style="font-family:Times New Roman;font-size:11.00;">new</text>
<text text-anchor="start" x="8.5" y="-475.9" style="font-family:Times New Roman;font-size:11.00;">permalink</text>
<text text-anchor="start" x="8.5" y="-458.9" style="font-family:Times New Roman;font-size:11.00;">preview</text>
<text text-anchor="start" x="8.5" y="-441.9" style="font-family:Times New Roman;font-size:11.00;">show</text>
<text text-anchor="start" x="8.5" y="-424.9" style="font-family:Times New Roman;font-size:11.00;">update</text>
<polyline style="fill:none;stroke:black;" points="1,-417 124,-417 "/>
<polyline style="fill:none;stroke:black;" points="1,-393 124,-393 "/>
</g>
<!-- CertificateTicketsController -->
<g id="node3" class="node"><title>CertificateTicketsController</title>
<polyline style="fill:none;stroke:black;" points="729,-524 885,-524 "/>
<path style="fill:none;stroke:black;" d="M885,-524C891,-524 897,-530 897,-536"/>
<polyline style="fill:none;stroke:black;" points="897,-536 897,-712 "/>
<path style="fill:none;stroke:black;" d="M897,-712C897,-718 891,-724 885,-724"/>
<polyline style="fill:none;stroke:black;" points="885,-724 729,-724 "/>
<path style="fill:none;stroke:black;" d="M729,-724C723,-724 717,-718 717,-712"/>
<polyline style="fill:none;stroke:black;" points="717,-712 717,-536 "/>
<path style="fill:none;stroke:black;" d="M717,-536C717,-530 723,-524 729,-524"/>
<text text-anchor="middle" x="807" y="-706.9" style="font-family:Times New Roman;font-size:11.00;">CertificateTicketsController</text>
<polyline style="fill:none;stroke:black;" points="717,-699 897,-699 "/>
<text text-anchor="start" x="725" y="-681.9" style="font-family:Times New Roman;font-size:11.00;">create</text>
<text text-anchor="start" x="725" y="-664.9" style="font-family:Times New Roman;font-size:11.00;">destroy</text>
<text text-anchor="start" x="725" y="-647.9" style="font-family:Times New Roman;font-size:11.00;">edit</text>
<text text-anchor="start" x="725" y="-630.9" style="font-family:Times New Roman;font-size:11.00;">index</text>
<text text-anchor="start" x="725" y="-613.9" style="font-family:Times New Roman;font-size:11.00;">new</text>
<text text-anchor="start" x="725" y="-596.9" style="font-family:Times New Roman;font-size:11.00;">show</text>
<text text-anchor="start" x="725" y="-579.9" style="font-family:Times New Roman;font-size:11.00;">update</text>
<polyline style="fill:none;stroke:black;" points="717,-572 897,-572 "/>
<polyline style="fill:none;stroke:black;" points="717,-548 897,-548 "/>
</g>
<!-- CommentsController -->
<g id="node4" class="node"><title>CommentsController</title>
<polyline style="fill:none;stroke:black;" points="336,-41 452,-41 "/>
<path style="fill:none;stroke:black;" d="M452,-41C458,-41 464,-47 464,-53"/>
<polyline style="fill:none;stroke:black;" points="464,-53 464,-127 "/>
<path style="fill:none;stroke:black;" d="M464,-127C464,-133 458,-139 452,-139"/>
<polyline style="fill:none;stroke:black;" points="452,-139 336,-139 "/>
<path style="fill:none;stroke:black;" d="M336,-139C330,-139 324,-133 324,-127"/>
<polyline style="fill:none;stroke:black;" points="324,-127 324,-53 "/>
<path style="fill:none;stroke:black;" d="M324,-53C324,-47 330,-41 336,-41"/>
<text text-anchor="middle" x="394" y="-121.9" style="font-family:Times New Roman;font-size:11.00;">CommentsController</text>
<polyline style="fill:none;stroke:black;" points="324,-114 464,-114 "/>
<text text-anchor="start" x="332" y="-96.9" style="font-family:Times New Roman;font-size:11.00;">create</text>
<polyline style="fill:none;stroke:black;" points="324,-89 464,-89 "/>
<polyline style="fill:none;stroke:black;" points="324,-65 464,-65 "/>
</g>
<!-- FourOhFoursController -->
<g id="node5" class="node"><title>FourOhFoursController</title>
<polyline style="fill:none;stroke:black;" points="371,-1050 501,-1050 "/>
<path style="fill:none;stroke:black;" d="M501,-1050C507,-1050 513,-1056 513,-1062"/>
<polyline style="fill:none;stroke:black;" points="513,-1062 513,-1136 "/>
<path style="fill:none;stroke:black;" d="M513,-1136C513,-1142 507,-1148 501,-1148"/>
<polyline style="fill:none;stroke:black;" points="501,-1148 371,-1148 "/>
<path style="fill:none;stroke:black;" d="M371,-1148C365,-1148 359,-1142 359,-1136"/>
<polyline style="fill:none;stroke:black;" points="359,-1136 359,-1062 "/>
<path style="fill:none;stroke:black;" d="M359,-1062C359,-1056 365,-1050 371,-1050"/>
<text text-anchor="middle" x="436" y="-1130.9" style="font-family:Times New Roman;font-size:11.00;">FourOhFoursController</text>
<polyline style="fill:none;stroke:black;" points="359,-1123 513,-1123 "/>
<text text-anchor="start" x="367" y="-1105.9" style="font-family:Times New Roman;font-size:11.00;">index</text>
<polyline style="fill:none;stroke:black;" points="359,-1098 513,-1098 "/>
<polyline style="fill:none;stroke:black;" points="359,-1074 513,-1074 "/>
</g>
<!-- PagesController -->
<g id="node6" class="node"><title>PagesController</title>
<polyline style="fill:none;stroke:black;" points="422,-665 508,-665 "/>
<path style="fill:none;stroke:black;" d="M508,-665C514,-665 520,-671 520,-677"/>
<polyline style="fill:none;stroke:black;" points="520,-677 520,-938 "/>
<path style="fill:none;stroke:black;" d="M520,-938C520,-944 514,-950 508,-950"/>
<polyline style="fill:none;stroke:black;" points="508,-950 422,-950 "/>
<path style="fill:none;stroke:black;" d="M422,-950C416,-950 410,-944 410,-938"/>
<polyline style="fill:none;stroke:black;" points="410,-938 410,-677 "/>
<path style="fill:none;stroke:black;" d="M410,-677C410,-671 416,-665 422,-665"/>
<text text-anchor="middle" x="465" y="-932.9" style="font-family:Times New Roman;font-size:11.00;">PagesController</text>
<polyline style="fill:none;stroke:black;" points="410,-925 520,-925 "/>
<text text-anchor="start" x="418" y="-908.4" style="font-family:Times New Roman;font-size:11.00;">create</text>
<text text-anchor="start" x="418" y="-891.4" style="font-family:Times New Roman;font-size:11.00;">destroy</text>
<text text-anchor="start" x="418" y="-874.4" style="font-family:Times New Roman;font-size:11.00;">edit</text>
<text text-anchor="start" x="418" y="-857.4" style="font-family:Times New Roman;font-size:11.00;">home</text>
<text text-anchor="start" x="418" y="-840.4" style="font-family:Times New Roman;font-size:11.00;">index</text>
<text text-anchor="start" x="418" y="-823.4" style="font-family:Times New Roman;font-size:11.00;">new</text>
<text text-anchor="start" x="418" y="-806.4" style="font-family:Times New Roman;font-size:11.00;">permalink</text>
<text text-anchor="start" x="418" y="-789.4" style="font-family:Times New Roman;font-size:11.00;">show</text>
<text text-anchor="start" x="418" y="-772.4" style="font-family:Times New Roman;font-size:11.00;">splash_on</text>
<text text-anchor="start" x="418" y="-755.4" style="font-family:Times New Roman;font-size:11.00;">splash_on=</text>
<text text-anchor="start" x="418" y="-738.4" style="font-family:Times New Roman;font-size:11.00;">splash_on?</text>
<text text-anchor="start" x="418" y="-721.4" style="font-family:Times New Roman;font-size:11.00;">update</text>
<polyline style="fill:none;stroke:black;" points="410,-713 520,-713 "/>
<polyline style="fill:none;stroke:black;" points="410,-689 520,-689 "/>
</g>
<!-- PasswordsController -->
<g id="node7" class="node"><title>PasswordsController</title>
<polyline style="fill:none;stroke:black;" points="39,-1003 166,-1003 "/>
<path style="fill:none;stroke:black;" d="M166,-1003C172,-1003 178,-1009 178,-1015"/>
<polyline style="fill:none;stroke:black;" points="178,-1015 178,-1157 "/>
<path style="fill:none;stroke:black;" d="M178,-1157C178,-1163 172,-1169 166,-1169"/>
<polyline style="fill:none;stroke:black;" points="166,-1169 39,-1169 "/>
<path style="fill:none;stroke:black;" d="M39,-1169C33,-1169 27,-1163 27,-1157"/>
<polyline style="fill:none;stroke:black;" points="27,-1157 27,-1015 "/>
<path style="fill:none;stroke:black;" d="M27,-1015C27,-1009 33,-1003 39,-1003"/>
<text text-anchor="middle" x="102" y="-1151.9" style="font-family:Times New Roman;font-size:11.00;">PasswordsController</text>
<polyline style="fill:none;stroke:black;" points="27,-1144 178,-1144 "/>
<text text-anchor="start" x="34.5" y="-1126.9" style="font-family:Times New Roman;font-size:11.00;">create</text>
<text text-anchor="start" x="34.5" y="-1109.9" style="font-family:Times New Roman;font-size:11.00;">new</text>
<text text-anchor="start" x="34.5" y="-1092.9" style="font-family:Times New Roman;font-size:11.00;">reset</text>
<text text-anchor="start" x="34.5" y="-1075.9" style="font-family:Times New Roman;font-size:11.00;">update</text>
<text text-anchor="start" x="34.5" y="-1058.9" style="font-family:Times New Roman;font-size:11.00;">update_after_forgetting</text>
<polyline style="fill:none;stroke:black;" points="27,-1051 178,-1051 "/>
<polyline style="fill:none;stroke:black;" points="27,-1027 178,-1027 "/>
</g>
<!-- ProductsController -->
<g id="node8" class="node"><title>ProductsController</title>
<polyline style="fill:none;stroke:black;" points="34,-50 137,-50 "/>
<path style="fill:none;stroke:black;" d="M137,-50C143,-50 149,-56 149,-62"/>
<polyline style="fill:none;stroke:black;" points="149,-62 149,-238 "/>
<path style="fill:none;stroke:black;" d="M149,-238C149,-244 143,-250 137,-250"/>
<polyline style="fill:none;stroke:black;" points="137,-250 34,-250 "/>
<path style="fill:none;stroke:black;" d="M34,-250C28,-250 22,-244 22,-238"/>
<polyline style="fill:none;stroke:black;" points="22,-238 22,-62 "/>
<path style="fill:none;stroke:black;" d="M22,-62C22,-56 28,-50 34,-50"/>
<text text-anchor="middle" x="85" y="-232.9" style="font-family:Times New Roman;font-size:11.00;">ProductsController</text>
<polyline style="fill:none;stroke:black;" points="22,-225 149,-225 "/>
<text text-anchor="start" x="29.5" y="-207.9" style="font-family:Times New Roman;font-size:11.00;">create</text>
<text text-anchor="start" x="29.5" y="-190.9" style="font-family:Times New Roman;font-size:11.00;">destroy</text>
<text text-anchor="start" x="29.5" y="-173.9" style="font-family:Times New Roman;font-size:11.00;">edit</text>
<text text-anchor="start" x="29.5" y="-156.9" style="font-family:Times New Roman;font-size:11.00;">index</text>
<text text-anchor="start" x="29.5" y="-139.9" style="font-family:Times New Roman;font-size:11.00;">new</text>
<text text-anchor="start" x="29.5" y="-122.9" style="font-family:Times New Roman;font-size:11.00;">show</text>
<text text-anchor="start" x="29.5" y="-105.9" style="font-family:Times New Roman;font-size:11.00;">update</text>
<polyline style="fill:none;stroke:black;" points="22,-98 149,-98 "/>
<polyline style="fill:none;stroke:black;" points="22,-74 149,-74 "/>
</g>
<!-- RedirectsController -->
<g id="node9" class="node"><title>RedirectsController</title>
<polyline style="fill:none;stroke:black;" points="772,-291 880,-291 "/>
<path style="fill:none;stroke:black;" d="M880,-291C886,-291 892,-297 892,-303"/>
<polyline style="fill:none;stroke:black;" points="892,-303 892,-479 "/>
<path style="fill:none;stroke:black;" d="M892,-479C892,-485 886,-491 880,-491"/>
<polyline style="fill:none;stroke:black;" points="880,-491 772,-491 "/>
<path style="fill:none;stroke:black;" d="M772,-491C766,-491 760,-485 760,-479"/>
<polyline style="fill:none;stroke:black;" points="760,-479 760,-303 "/>
<path style="fill:none;stroke:black;" d="M760,-303C760,-297 766,-291 772,-291"/>
<text text-anchor="middle" x="826" y="-473.9" style="font-family:Times New Roman;font-size:11.00;">RedirectsController</text>
<polyline style="fill:none;stroke:black;" points="760,-466 892,-466 "/>
<text text-anchor="start" x="768" y="-448.9" style="font-family:Times New Roman;font-size:11.00;">create</text>
<text text-anchor="start" x="768" y="-431.9" style="font-family:Times New Roman;font-size:11.00;">destroy</text>
<text text-anchor="start" x="768" y="-414.9" style="font-family:Times New Roman;font-size:11.00;">edit</text>
<text text-anchor="start" x="768" y="-397.9" style="font-family:Times New Roman;font-size:11.00;">index</text>
<text text-anchor="start" x="768" y="-380.9" style="font-family:Times New Roman;font-size:11.00;">new</text>
<text text-anchor="start" x="768" y="-363.9" style="font-family:Times New Roman;font-size:11.00;">show</text>
<text text-anchor="start" x="768" y="-346.9" style="font-family:Times New Roman;font-size:11.00;">update</text>
<polyline style="fill:none;stroke:black;" points="760,-339 892,-339 "/>
<polyline style="fill:none;stroke:black;" points="760,-315 892,-315 "/>
</g>
<!-- RolesController -->
<g id="node10" class="node"><title>RolesController</title>
<polyline style="fill:none;stroke:black;" points="263,-364 348,-364 "/>
<path style="fill:none;stroke:black;" d="M348,-364C354,-364 360,-370 360,-376"/>
<polyline style="fill:none;stroke:black;" points="360,-376 360,-484 "/>
<path style="fill:none;stroke:black;" d="M360,-484C360,-490 354,-496 348,-496"/>
<polyline style="fill:none;stroke:black;" points="348,-496 263,-496 "/>
<path style="fill:none;stroke:black;" d="M263,-496C257,-496 251,-490 251,-484"/>
<polyline style="fill:none;stroke:black;" points="251,-484 251,-376 "/>
<path style="fill:none;stroke:black;" d="M251,-376C251,-370 257,-364 263,-364"/>
<text text-anchor="middle" x="305" y="-478.9" style="font-family:Times New Roman;font-size:11.00;">RolesController</text>
<polyline style="fill:none;stroke:black;" points="251,-471 360,-471 "/>
<text text-anchor="start" x="258.5" y="-453.9" style="font-family:Times New Roman;font-size:11.00;">destroy</text>
<text text-anchor="start" x="258.5" y="-436.9" style="font-family:Times New Roman;font-size:11.00;">index</text>
<text text-anchor="start" x="258.5" y="-419.9" style="font-family:Times New Roman;font-size:11.00;">update</text>
<polyline style="fill:none;stroke:black;" points="251,-412 360,-412 "/>
<polyline style="fill:none;stroke:black;" points="251,-388 360,-388 "/>
</g>
<!-- ServersController -->
<g id="node11" class="node"><title>ServersController</title>
<polyline style="fill:none;stroke:black;" points="743,-1 839,-1 "/>
<path style="fill:none;stroke:black;" d="M839,-1C845,-1 851,-7 851,-13"/>
<polyline style="fill:none;stroke:black;" points="851,-13 851,-189 "/>
<path style="fill:none;stroke:black;" d="M851,-189C851,-195 845,-201 839,-201"/>
<polyline style="fill:none;stroke:black;" points="839,-201 743,-201 "/>
<path style="fill:none;stroke:black;" d="M743,-201C737,-201 731,-195 731,-189"/>
<polyline style="fill:none;stroke:black;" points="731,-189 731,-13 "/>
<path style="fill:none;stroke:black;" d="M731,-13C731,-7 737,-1 743,-1"/>
<text text-anchor="middle" x="791" y="-183.9" style="font-family:Times New Roman;font-size:11.00;">ServersController</text>
<polyline style="fill:none;stroke:black;" points="731,-176 851,-176 "/>
<text text-anchor="start" x="739" y="-158.9" style="font-family:Times New Roman;font-size:11.00;">create</text>
<text text-anchor="start" x="739" y="-141.9" style="font-family:Times New Roman;font-size:11.00;">destroy</text>
<text text-anchor="start" x="739" y="-124.9" style="font-family:Times New Roman;font-size:11.00;">edit</text>
<text text-anchor="start" x="739" y="-107.9" style="font-family:Times New Roman;font-size:11.00;">index</text>
<text text-anchor="start" x="739" y="-90.9" style="font-family:Times New Roman;font-size:11.00;">new</text>
<text text-anchor="start" x="739" y="-73.9" style="font-family:Times New Roman;font-size:11.00;">show</text>
<text text-anchor="start" x="739" y="-56.9" style="font-family:Times New Roman;font-size:11.00;">update</text>
<polyline style="fill:none;stroke:black;" points="731,-49 851,-49 "/>
<polyline style="fill:none;stroke:black;" points="731,-25 851,-25 "/>
</g>
<!-- SessionsController -->
<g id="node12" class="node"><title>SessionsController</title>
<polyline style="fill:none;stroke:black;" points="491,-204 624,-204 "/>
<path style="fill:none;stroke:black;" d="M624,-204C630,-204 636,-210 636,-216"/>
<polyline style="fill:none;stroke:black;" points="636,-216 636,-376 "/>
<path style="fill:none;stroke:black;" d="M636,-376C636,-382 630,-388 624,-388"/>
<polyline style="fill:none;stroke:black;" points="624,-388 491,-388 "/>
<path style="fill:none;stroke:black;" d="M491,-388C485,-388 479,-382 479,-376"/>
<polyline style="fill:none;stroke:black;" points="479,-376 479,-216 "/>
<path style="fill:none;stroke:black;" d="M479,-216C479,-210 485,-204 491,-204"/>
<text text-anchor="middle" x="557" y="-370.9" style="font-family:Times New Roman;font-size:11.00;">SessionsController</text>
<polyline style="fill:none;stroke:black;" points="479,-363 636,-363 "/>
<text text-anchor="start" x="486.5" y="-346.4" style="font-family:Times New Roman;font-size:11.00;">create</text>
<text text-anchor="start" x="486.5" y="-329.4" style="font-family:Times New Roman;font-size:11.00;">destroy</text>
<text text-anchor="start" x="486.5" y="-312.4" style="font-family:Times New Roman;font-size:11.00;">new</text>
<text text-anchor="start" x="486.5" y="-295.4" style="font-family:Times New Roman;font-size:11.00;">open_id_authentication</text>
<polyline style="fill:none;stroke:black;" points="479,-287 636,-287 "/>
<text text-anchor="start" x="486.5" y="-269.9" style="font-family:Times New Roman;font-size:11.00;">note_failed_signin</text>
<text text-anchor="start" x="486.5" y="-252.9" style="font-family:Times New Roman;font-size:11.00;">password_authentication</text>
<text text-anchor="start" x="486.5" y="-235.9" style="font-family:Times New Roman;font-size:11.00;">successful_login</text>
<polyline style="fill:none;stroke:black;" points="479,-228 636,-228 "/>
</g>
<!-- TagsController -->
<g id="node13" class="node"><title>TagsController</title>
<polyline style="fill:none;stroke:black;" points="96,-719 176,-719 "/>
<path style="fill:none;stroke:black;" d="M176,-719C182,-719 188,-725 188,-731"/>
<polyline style="fill:none;stroke:black;" points="188,-731 188,-822 "/>
<path style="fill:none;stroke:black;" d="M188,-822C188,-828 182,-834 176,-834"/>
<polyline style="fill:none;stroke:black;" points="176,-834 96,-834 "/>
<path style="fill:none;stroke:black;" d="M96,-834C90,-834 84,-828 84,-822"/>
<polyline style="fill:none;stroke:black;" points="84,-822 84,-731 "/>
<path style="fill:none;stroke:black;" d="M84,-731C84,-725 90,-719 96,-719"/>
<text text-anchor="middle" x="136" y="-816.9" style="font-family:Times New Roman;font-size:11.00;">TagsController</text>
<polyline style="fill:none;stroke:black;" points="84,-809 188,-809 "/>
<text text-anchor="start" x="92" y="-792.4" style="font-family:Times New Roman;font-size:11.00;">index</text>
<text text-anchor="start" x="92" y="-775.4" style="font-family:Times New Roman;font-size:11.00;">show</text>
<polyline style="fill:none;stroke:black;" points="84,-767 188,-767 "/>
<polyline style="fill:none;stroke:black;" points="84,-743 188,-743 "/>
</g>
<!-- TicketsController -->
<g id="node14" class="node"><title>TicketsController</title>
<polyline style="fill:none;stroke:black;" points="755,-749 850,-749 "/>
<path style="fill:none;stroke:black;" d="M850,-749C856,-749 862,-755 862,-761"/>
<polyline style="fill:none;stroke:black;" points="862,-761 862,-937 "/>
<path style="fill:none;stroke:black;" d="M862,-937C862,-943 856,-949 850,-949"/>
<polyline style="fill:none;stroke:black;" points="850,-949 755,-949 "/>
<path style="fill:none;stroke:black;" d="M755,-949C749,-949 743,-943 743,-937"/>
<polyline style="fill:none;stroke:black;" points="743,-937 743,-761 "/>
<path style="fill:none;stroke:black;" d="M743,-761C743,-755 749,-749 755,-749"/>
<text text-anchor="middle" x="802" y="-931.9" style="font-family:Times New Roman;font-size:11.00;">TicketsController</text>
<polyline style="fill:none;stroke:black;" points="743,-924 862,-924 "/>
<text text-anchor="start" x="750.5" y="-906.9" style="font-family:Times New Roman;font-size:11.00;">create</text>
<text text-anchor="start" x="750.5" y="-889.9" style="font-family:Times New Roman;font-size:11.00;">destroy</text>
<text text-anchor="start" x="750.5" y="-872.9" style="font-family:Times New Roman;font-size:11.00;">edit</text>
<text text-anchor="start" x="750.5" y="-855.9" style="font-family:Times New Roman;font-size:11.00;">index</text>
<text text-anchor="start" x="750.5" y="-838.9" style="font-family:Times New Roman;font-size:11.00;">new</text>
<text text-anchor="start" x="750.5" y="-821.9" style="font-family:Times New Roman;font-size:11.00;">show</text>
<text text-anchor="start" x="750.5" y="-804.9" style="font-family:Times New Roman;font-size:11.00;">update</text>
<polyline style="fill:none;stroke:black;" points="743,-797 862,-797 "/>
<polyline style="fill:none;stroke:black;" points="743,-773 862,-773 "/>
</g>
<!-- UsersController -->
<g id="node15" class="node"><title>UsersController</title>
<polyline style="fill:none;stroke:black;" points="734,-971 838,-971 "/>
<path style="fill:none;stroke:black;" d="M838,-971C844,-971 850,-977 850,-983"/>
<polyline style="fill:none;stroke:black;" points="850,-983 850,-1245 "/>
<path style="fill:none;stroke:black;" d="M850,-1245C850,-1251 844,-1257 838,-1257"/>
<polyline style="fill:none;stroke:black;" points="838,-1257 734,-1257 "/>
<path style="fill:none;stroke:black;" d="M734,-1257C728,-1257 722,-1251 722,-1245"/>
<polyline style="fill:none;stroke:black;" points="722,-1245 722,-983 "/>
<path style="fill:none;stroke:black;" d="M722,-983C722,-977 728,-971 734,-971"/>
<text text-anchor="middle" x="786" y="-1239.9" style="font-family:Times New Roman;font-size:11.00;">UsersController</text>
<polyline style="fill:none;stroke:black;" points="722,-1232 850,-1232 "/>
<text text-anchor="start" x="730" y="-1215.4" style="font-family:Times New Roman;font-size:11.00;">activate</text>
<text text-anchor="start" x="730" y="-1198.4" style="font-family:Times New Roman;font-size:11.00;">create</text>
<text text-anchor="start" x="730" y="-1181.4" style="font-family:Times New Roman;font-size:11.00;">disable</text>
<text text-anchor="start" x="730" y="-1164.4" style="font-family:Times New Roman;font-size:11.00;">edit</text>
<text text-anchor="start" x="730" y="-1147.4" style="font-family:Times New Roman;font-size:11.00;">enable</text>
<text text-anchor="start" x="730" y="-1130.4" style="font-family:Times New Roman;font-size:11.00;">index</text>
<text text-anchor="start" x="730" y="-1113.4" style="font-family:Times New Roman;font-size:11.00;">new</text>
<text text-anchor="start" x="730" y="-1096.4" style="font-family:Times New Roman;font-size:11.00;">show</text>
<text text-anchor="start" x="730" y="-1079.4" style="font-family:Times New Roman;font-size:11.00;">show_by_login</text>
<text text-anchor="start" x="730" y="-1062.4" style="font-family:Times New Roman;font-size:11.00;">update</text>
<polyline style="fill:none;stroke:black;" points="722,-1054 850,-1054 "/>
<text text-anchor="start" x="730" y="-1036.9" style="font-family:Times New Roman;font-size:11.00;">create_new_user</text>
<text text-anchor="start" x="730" y="-1019.9" style="font-family:Times New Roman;font-size:11.00;">failed_creation</text>
<text text-anchor="start" x="730" y="-1002.9" style="font-family:Times New Roman;font-size:11.00;">successful_creation</text>
<polyline style="fill:none;stroke:black;" points="722,-995 850,-995 "/>
</g>
<!-- ApplicationController -->
<g id="node16" class="node"><title>ApplicationController</title>
<polyline style="fill:none;stroke:black;" points="459,-484 579,-484 "/>
<path style="fill:none;stroke:black;" d="M579,-484C585,-484 591,-490 591,-496"/>
<polyline style="fill:none;stroke:black;" points="591,-496 591,-639 "/>
<path style="fill:none;stroke:black;" d="M591,-639C591,-645 585,-651 579,-651"/>
<polyline style="fill:none;stroke:black;" points="579,-651 459,-651 "/>
<path style="fill:none;stroke:black;" d="M459,-651C453,-651 447,-645 447,-639"/>
<polyline style="fill:none;stroke:black;" points="447,-639 447,-496 "/>
<path style="fill:none;stroke:black;" d="M447,-496C447,-490 453,-484 459,-484"/>
<text text-anchor="middle" x="519" y="-633.9" style="font-family:Times New Roman;font-size:11.00;">ApplicationController</text>
<polyline style="fill:none;stroke:black;" points="447,-626 591,-626 "/>
<text text-anchor="start" x="455" y="-609.4" style="font-family:Times New Roman;font-size:11.00;">role_requirements</text>
<text text-anchor="start" x="455" y="-592.4" style="font-family:Times New Roman;font-size:11.00;">role_requirements=</text>
<polyline style="fill:none;stroke:black;" points="447,-584 591,-584 "/>
<text text-anchor="start" x="455" y="-567.4" style="font-family:Times New Roman;font-size:11.00;">affiliate_check</text>
<text text-anchor="start" x="455" y="-550.4" style="font-family:Times New Roman;font-size:11.00;">default_url_options</text>
<text text-anchor="start" x="455" y="-533.4" style="font-family:Times New Roman;font-size:11.00;">filter_parameters</text>
<text text-anchor="start" x="455" y="-516.4" style="font-family:Times New Roman;font-size:11.00;">record_not_found</text>
<polyline style="fill:none;stroke:black;" points="447,-508 591,-508 "/>
</g>
<!-- ApplicationController&#45;&gt;ArticlesController -->
<g id="edge2" class="edge"><title>ApplicationController&#45;&gt;ArticlesController</title>
<path style="fill:none;stroke:black;" d="M437,-557C347,-543 205,-524 124,-512"/>
<polygon style="fill:none;stroke:black;" points="436.701,-560.488 447,-558 437.398,-553.522 436.701,-560.488"/>
</g>
<!-- ApplicationController&#45;&gt;CertificateTicketsController -->
<g id="edge4" class="edge"><title>ApplicationController&#45;&gt;CertificateTicketsController</title>
<path style="fill:none;stroke:black;" d="M601,-584C637,-592 680,-600 717,-607"/>
<polygon style="fill:none;stroke:black;" points="601.492,-580.529 591,-582 600.119,-587.393 601.492,-580.529"/>
</g>
<!-- ApplicationController&#45;&gt;CommentsController -->
<g id="edge6" class="edge"><title>ApplicationController&#45;&gt;CommentsController</title>
<path style="fill:none;stroke:black;" d="M494,-474C468,-374 427,-218 407,-139"/>
<polygon style="fill:none;stroke:black;" points="490.774,-475.427 497,-484 497.479,-473.416 490.774,-475.427"/>
</g>
<!-- ApplicationController&#45;&gt;FourOhFoursController -->
<g id="edge8" class="edge"><title>ApplicationController&#45;&gt;FourOhFoursController</title>
<path style="fill:none;stroke:black;" d="M534,-661C544,-740 550,-856 523,-953 513,-988 493,-1023 474,-1050"/>
<polygon style="fill:none;stroke:black;" points="537.478,-660.602 533,-651 530.512,-661.299 537.478,-660.602"/>
</g>
<!-- ApplicationController&#45;&gt;PagesController -->
<g id="edge10" class="edge"><title>ApplicationController&#45;&gt;PagesController</title>
<path style="fill:none;stroke:black;" d="M498,-661C498,-662 497,-664 497,-665"/>
<polygon style="fill:none;stroke:black;" points="501.471,-661.492 500,-651 494.607,-660.119 501.471,-661.492"/>
</g>
<!-- ApplicationController&#45;&gt;PasswordsController -->
<g id="edge12" class="edge"><title>ApplicationController&#45;&gt;PasswordsController</title>
<path style="fill:none;stroke:black;" d="M439,-631C428,-641 417,-651 407,-662 306,-771 209,-914 153,-1003"/>
<polygon style="fill:none;stroke:black;" points="441.779,-633.219 447,-624 437.169,-627.951 441.779,-633.219"/>
</g>
<!-- ApplicationController&#45;&gt;ProductsController -->
<g id="edge14" class="edge"><title>ApplicationController&#45;&gt;ProductsController</title>
<path style="fill:none;stroke:black;" d="M458,-475C431,-438 397,-395 363,-361 297,-294 208,-231 149,-191"/>
<polygon style="fill:none;stroke:black;" points="455.541,-477.621 464,-484 461.365,-473.738 455.541,-477.621"/>
</g>
<!-- ApplicationController&#45;&gt;RedirectsController -->
<g id="edge16" class="edge"><title>ApplicationController&#45;&gt;RedirectsController</title>
<path style="fill:none;stroke:black;" d="M600,-521C650,-493 713,-456 760,-429"/>
<polygon style="fill:none;stroke:black;" points="598.042,-518.084 591,-526 601.441,-524.203 598.042,-518.084"/>
</g>
<!-- ApplicationController&#45;&gt;RolesController -->
<g id="edge18" class="edge"><title>ApplicationController&#45;&gt;RolesController</title>
<path style="fill:none;stroke:black;" d="M438,-515C413,-499 384,-480 360,-465"/>
<polygon style="fill:none;stroke:black;" points="436.738,-518.365 447,-521 440.621,-512.541 436.738,-518.365"/>
</g>
<!-- ApplicationController&#45;&gt;ServersController -->
<g id="edge20" class="edge"><title>ApplicationController&#45;&gt;ServersController</title>
<path style="fill:none;stroke:black;" d="M585,-476C603,-449 622,-419 639,-391 676,-329 714,-258 742,-201"/>
<polygon style="fill:none;stroke:black;" points="582.2,-473.9 579,-484 587.8,-478.1 582.2,-473.9"/>
</g>
<!-- ApplicationController&#45;&gt;SessionsController -->
<g id="edge22" class="edge"><title>ApplicationController&#45;&gt;SessionsController</title>
<path style="fill:none;stroke:black;" d="M532,-474C536,-446 540,-416 544,-388"/>
<polygon style="fill:none;stroke:black;" points="528.512,-473.701 531,-484 535.478,-474.398 528.512,-473.701"/>
</g>
<!-- ApplicationController&#45;&gt;TagsController -->
<g id="edge24" class="edge"><title>ApplicationController&#45;&gt;TagsController</title>
<path style="fill:none;stroke:black;" d="M438,-612C363,-653 252,-713 188,-749"/>
<polygon style="fill:none;stroke:black;" points="439.958,-614.916 447,-607 436.559,-608.797 439.958,-614.916"/>
</g>
<!-- ApplicationController&#45;&gt;TicketsController -->
<g id="edge26" class="edge"><title>ApplicationController&#45;&gt;TicketsController</title>
<path style="fill:none;stroke:black;" d="M598,-647C644,-693 701,-749 743,-790"/>
<polygon style="fill:none;stroke:black;" points="600.546,-644.596 591,-640 595.596,-649.546 600.546,-644.596"/>
</g>
<!-- ApplicationController&#45;&gt;UsersController -->
<g id="edge28" class="edge"><title>ApplicationController&#45;&gt;UsersController</title>
<path style="fill:none;stroke:black;" d="M564,-660C608,-749 674,-884 722,-983"/>
<polygon style="fill:none;stroke:black;" points="567.26,-658.717 560,-651 560.863,-661.56 567.26,-658.717"/>
</g>
</g>
</svg>
