<?xml version="1.0" encoding="UTF-8" standalone="no"?>
<!DOCTYPE svg PUBLIC "-//W3C//DTD SVG 1.0//EN"
 "http://www.w3.org/TR/2001/REC-SVG-20010904/DTD/svg10.dtd" [
 <!ATTLIST svg xmlns:xlink CDATA #FIXED "http://www.w3.org/1999/xlink">
]>
<!-- Generated by Graphviz version 2.20.3 (Fri Oct 10 18:11:01 UTC 2008)
     For user: (ivan) Ivan Storck -->
<!-- Title: models_diagram Pages: 1 -->
<svg width="2124pt" height="1100pt"
 viewBox="0.00 0.00 2124.00 1100.00" xmlns="http://www.w3.org/2000/svg" xmlns:xlink="http://www.w3.org/1999/xlink">
<g id="graph0" class="graph" transform="scale(1 1) rotate(0) translate(4 1096)">
<title>models_diagram</title>
<polygon style="fill:white;stroke:white;" points="-4,4 -4,-1096 2120,-1096 2120,4 -4,4"/>
<!-- _diagram_info -->
<g id="node1" class="node"><title>_diagram_info</title>
<text text-anchor="start" x="33.5" y="-969.4" style="font-family:Times New Roman;font-size:11.00;">Models diagram</text>
<text text-anchor="start" x="33.5" y="-952.4" style="font-family:Times New Roman;font-size:11.00;">Date: Mar 16 2009 &#45; 23:15</text>
<text text-anchor="start" x="33.5" y="-935.4" style="font-family:Times New Roman;font-size:11.00;">Migration version: 20090308222018</text>
<text text-anchor="start" x="33.5" y="-918.4" style="font-family:Times New Roman;font-size:11.00;">Generated by RailRoad 0.5.0</text>
</g>
<!-- Article -->
<g id="node2" class="node"><title>Article</title>
<polyline style="fill:none;stroke:black;" points="150,-206 307,-206 "/>
<path style="fill:none;stroke:black;" d="M307,-206C313,-206 319,-212 319,-218"/>
<polyline style="fill:none;stroke:black;" points="319,-218 319,-397 "/>
<path style="fill:none;stroke:black;" d="M319,-397C319,-403 313,-409 307,-409"/>
<polyline style="fill:none;stroke:black;" points="307,-409 150,-409 "/>
<path style="fill:none;stroke:black;" d="M150,-409C144,-409 138,-403 138,-397"/>
<polyline style="fill:none;stroke:black;" points="138,-397 138,-218 "/>
<path style="fill:none;stroke:black;" d="M138,-218C138,-212 144,-206 150,-206"/>
<text text-anchor="middle" x="228" y="-391.9" style="font-family:Times New Roman;font-size:11.00;">Article</text>
<polyline style="fill:none;stroke:black;" points="138,-384 319,-384 "/>
<text text-anchor="start" x="145.5" y="-367.4" style="font-family:Times New Roman;font-size:11.00;">title :string</text>
<text text-anchor="start" x="145.5" y="-350.4" style="font-family:Times New Roman;font-size:11.00;">synopsis :text</text>
<text text-anchor="start" x="145.5" y="-333.4" style="font-family:Times New Roman;font-size:11.00;">body :text</text>
<text text-anchor="start" x="145.5" y="-316.4" style="font-family:Times New Roman;font-size:11.00;">published :boolean</text>
<text text-anchor="start" x="145.5" y="-299.4" style="font-family:Times New Roman;font-size:11.00;">created_at :datetime</text>
<text text-anchor="start" x="145.5" y="-282.4" style="font-family:Times New Roman;font-size:11.00;">updated_at :datetime</text>
<text text-anchor="start" x="145.5" y="-265.4" style="font-family:Times New Roman;font-size:11.00;">published_at :datetime</text>
<text text-anchor="start" x="145.5" y="-248.4" style="font-family:Times New Roman;font-size:11.00;">permalink :string</text>
<text text-anchor="start" x="145.5" y="-231.4" style="font-family:Times New Roman;font-size:11.00;">comments_enabled :boolean</text>
<text text-anchor="start" x="145.5" y="-214.4" style="font-family:Times New Roman;font-size:11.00;">cached_tag_list :string</text>
</g>
<!-- Comment -->
<g id="node5" class="node"><title>Comment</title>
<polyline style="fill:none;stroke:black;" points="12,-0 154,-0 "/>
<path style="fill:none;stroke:black;" d="M154,-0C160,-0 166,-6 166,-12"/>
<polyline style="fill:none;stroke:black;" points="166,-12 166,-157 "/>
<path style="fill:none;stroke:black;" d="M166,-157C166,-163 160,-169 154,-169"/>
<polyline style="fill:none;stroke:black;" points="154,-169 12,-169 "/>
<path style="fill:none;stroke:black;" d="M12,-169C6,-169 0,-163 0,-157"/>
<polyline style="fill:none;stroke:black;" points="0,-157 0,-12 "/>
<path style="fill:none;stroke:black;" d="M0,-12C0,-6 6,-0 12,-0"/>
<text text-anchor="middle" x="83" y="-151.9" style="font-family:Times New Roman;font-size:11.00;">Comment</text>
<polyline style="fill:none;stroke:black;" points="0,-144 166,-144 "/>
<text text-anchor="start" x="8" y="-127.4" style="font-family:Times New Roman;font-size:11.00;">title :string</text>
<text text-anchor="start" x="8" y="-110.4" style="font-family:Times New Roman;font-size:11.00;">comment :text</text>
<text text-anchor="start" x="8" y="-93.4" style="font-family:Times New Roman;font-size:11.00;">created_at :datetime</text>
<text text-anchor="start" x="8" y="-76.4" style="font-family:Times New Roman;font-size:11.00;">updated_at :datetime</text>
<text text-anchor="start" x="8" y="-59.4" style="font-family:Times New Roman;font-size:11.00;">web_site :string</text>
<text text-anchor="start" x="8" y="-42.4" style="font-family:Times New Roman;font-size:11.00;">email :string</text>
<text text-anchor="start" x="8" y="-25.4" style="font-family:Times New Roman;font-size:11.00;">name :string</text>
<text text-anchor="start" x="8" y="-8.4" style="font-family:Times New Roman;font-size:11.00;">commentable_type :string</text>
</g>
<!-- Article&#45;&gt;Comment -->
<g id="edge6" class="edge"><title>Article&#45;&gt;Comment</title>
<path style="fill:none;stroke:black;" d="M156,-197C151,-190 147,-183 142,-176"/>
<polygon style="fill:black;stroke:black;" points="156.453,-197.679 158.256,-208.496 159.226,-201.84 162,-206 162,-206 162,-206 159.226,-201.84 165.744,-203.504 156.453,-197.679 156.453,-197.679"/>
<ellipse style="fill:black;stroke:black;" cx="139.985" cy="-172.473" rx="4.00002" ry="4.00002"/>
</g>
<!-- Tagging -->
<g id="node20" class="node"><title>Tagging</title>
<ellipse style="fill:none;stroke:black;" cx="228" cy="-85" rx="43.9728" ry="18"/>
<text text-anchor="middle" x="228" y="-80.9" style="font-family:Times New Roman;font-size:11.00;">Tagging</text>
</g>
<!-- Article&#45;&gt;Tagging -->
<g id="edge2" class="edge"><title>Article&#45;&gt;Tagging</title>
<path style="fill:none;stroke:black;" d="M228,-196C228,-164 228,-133 228,-111"/>
<polygon style="fill:black;stroke:black;" points="228,-196 223.5,-206 228,-201 228,-206 228,-206 228,-206 228,-201 232.5,-206 228,-196 228,-196"/>
<ellipse style="fill:black;stroke:black;" cx="228" cy="-107" rx="4" ry="4"/>
</g>
<!-- Tag -->
<g id="node22" class="node"><title>Tag</title>
<ellipse style="fill:none;stroke:black;" cx="317" cy="-85" rx="27" ry="18"/>
<text text-anchor="middle" x="317" y="-80.9" style="font-family:Times New Roman;font-size:11.00;">Tag</text>
</g>
<!-- Article&#45;&gt;Tag -->
<g id="edge4" class="edge"><title>Article&#45;&gt;Tag</title>
<path style="fill:none;stroke:black;" d="M273,-197C285,-165 298,-133 306,-112"/>
<polygon style="fill:black;stroke:black;" points="273.061,-196.862 264.888,-204.172 271.031,-201.431 269,-206 269,-206 269,-206 271.031,-201.431 273.112,-207.828 273.061,-196.862 273.061,-196.862"/>
<polygon style="fill:black;stroke:black;" points="305.939,-112.138 314.112,-104.828 307.969,-107.569 310,-103 310,-103 310,-103 307.969,-107.569 305.888,-101.172 305.939,-112.138 305.939,-112.138"/>
</g>
<!-- Category -->
<g id="node3" class="node"><title>Category</title>
<polyline style="fill:none;stroke:black;" points="106,-582 170,-582 "/>
<path style="fill:none;stroke:black;" d="M170,-582C176,-582 182,-588 182,-594"/>
<polyline style="fill:none;stroke:black;" points="182,-594 182,-620 "/>
<path style="fill:none;stroke:black;" d="M182,-620C182,-626 176,-632 170,-632"/>
<polyline style="fill:none;stroke:black;" points="170,-632 106,-632 "/>
<path style="fill:none;stroke:black;" d="M106,-632C100,-632 94,-626 94,-620"/>
<polyline style="fill:none;stroke:black;" points="94,-620 94,-594 "/>
<path style="fill:none;stroke:black;" d="M94,-594C94,-588 100,-582 106,-582"/>
<text text-anchor="middle" x="138" y="-614.9" style="font-family:Times New Roman;font-size:11.00;">Category</text>
<polyline style="fill:none;stroke:black;" points="94,-607 182,-607 "/>
<text text-anchor="start" x="102" y="-589.9" style="font-family:Times New Roman;font-size:11.00;">name :string</text>
</g>
<!-- Category&#45;&gt;Article -->
<g id="edge8" class="edge"><title>Category&#45;&gt;Article</title>
<path style="fill:none;stroke:black;" d="M149,-572C160,-534 179,-471 196,-417"/>
<polygon style="fill:black;stroke:black;" points="148.874,-572.422 141.69,-580.707 147.437,-577.211 146,-582 146,-582 146,-582 147.437,-577.211 150.31,-583.293 148.874,-572.422 148.874,-572.422"/>
<ellipse style="fill:black;stroke:black;" cx="197.03" cy="-412.881" rx="4.00001" ry="4.00001"/>
</g>
<!-- CertificateTicket -->
<g id="node4" class="node"><title>CertificateTicket</title>
<polyline style="fill:none;stroke:black;" points="392,-829 530,-829 "/>
<path style="fill:none;stroke:black;" d="M530,-829C536,-829 542,-835 542,-841"/>
<polyline style="fill:none;stroke:black;" points="542,-841 542,-1054 "/>
<path style="fill:none;stroke:black;" d="M542,-1054C542,-1060 536,-1066 530,-1066"/>
<polyline style="fill:none;stroke:black;" points="530,-1066 392,-1066 "/>
<path style="fill:none;stroke:black;" d="M392,-1066C386,-1066 380,-1060 380,-1054"/>
<polyline style="fill:none;stroke:black;" points="380,-1054 380,-841 "/>
<path style="fill:none;stroke:black;" d="M380,-841C380,-835 386,-829 392,-829"/>
<text text-anchor="middle" x="461" y="-1048.9" style="font-family:Times New Roman;font-size:11.00;">CertificateTicket</text>
<polyline style="fill:none;stroke:black;" points="380,-1041 542,-1041 "/>
<text text-anchor="start" x="388" y="-1024.4" style="font-family:Times New Roman;font-size:11.00;">email :string</text>
<text text-anchor="start" x="388" y="-1007.4" style="font-family:Times New Roman;font-size:11.00;">password :string</text>
<text text-anchor="start" x="388" y="-990.4" style="font-family:Times New Roman;font-size:11.00;">host :string</text>
<text text-anchor="start" x="388" y="-973.4" style="font-family:Times New Roman;font-size:11.00;">country :string</text>
<text text-anchor="start" x="388" y="-956.4" style="font-family:Times New Roman;font-size:11.00;">state :string</text>
<text text-anchor="start" x="388" y="-939.4" style="font-family:Times New Roman;font-size:11.00;">city :string</text>
<text text-anchor="start" x="388" y="-922.4" style="font-family:Times New Roman;font-size:11.00;">company_name :string</text>
<text text-anchor="start" x="388" y="-905.4" style="font-family:Times New Roman;font-size:11.00;">company_division :string</text>
<text text-anchor="start" x="388" y="-888.4" style="font-family:Times New Roman;font-size:11.00;">csr :text</text>
<text text-anchor="start" x="388" y="-871.4" style="font-family:Times New Roman;font-size:11.00;">rsa :text</text>
<text text-anchor="start" x="388" y="-854.4" style="font-family:Times New Roman;font-size:11.00;">created_at :datetime</text>
<text text-anchor="start" x="388" y="-837.4" style="font-family:Times New Roman;font-size:11.00;">updated_at :datetime</text>
</g>
<!-- FourOhFour -->
<g id="node6" class="node"><title>FourOhFour</title>
<polyline style="fill:none;stroke:black;" points="572,-880 683,-880 "/>
<path style="fill:none;stroke:black;" d="M683,-880C689,-880 695,-886 695,-892"/>
<polyline style="fill:none;stroke:black;" points="695,-892 695,-1003 "/>
<path style="fill:none;stroke:black;" d="M695,-1003C695,-1009 689,-1015 683,-1015"/>
<polyline style="fill:none;stroke:black;" points="683,-1015 572,-1015 "/>
<path style="fill:none;stroke:black;" d="M572,-1015C566,-1015 560,-1009 560,-1003"/>
<polyline style="fill:none;stroke:black;" points="560,-1003 560,-892 "/>
<path style="fill:none;stroke:black;" d="M560,-892C560,-886 566,-880 572,-880"/>
<text text-anchor="middle" x="627" y="-997.9" style="font-family:Times New Roman;font-size:11.00;">FourOhFour</text>
<polyline style="fill:none;stroke:black;" points="560,-990 695,-990 "/>
<text text-anchor="start" x="567.5" y="-973.4" style="font-family:Times New Roman;font-size:11.00;">host :string</text>
<text text-anchor="start" x="567.5" y="-956.4" style="font-family:Times New Roman;font-size:11.00;">path :string</text>
<text text-anchor="start" x="567.5" y="-939.4" style="font-family:Times New Roman;font-size:11.00;">referer :string</text>
<text text-anchor="start" x="567.5" y="-922.4" style="font-family:Times New Roman;font-size:11.00;">count :integer</text>
<text text-anchor="start" x="567.5" y="-905.4" style="font-family:Times New Roman;font-size:11.00;">created_at :datetime</text>
<text text-anchor="start" x="567.5" y="-888.4" style="font-family:Times New Roman;font-size:11.00;">updated_at :datetime</text>
</g>
<!-- Page -->
<g id="node7" class="node"><title>Page</title>
<polyline style="fill:none;stroke:black;" points="724,-872 843,-872 "/>
<path style="fill:none;stroke:black;" d="M843,-872C849,-872 855,-878 855,-884"/>
<polyline style="fill:none;stroke:black;" points="855,-884 855,-1012 "/>
<path style="fill:none;stroke:black;" d="M855,-1012C855,-1018 849,-1024 843,-1024"/>
<polyline style="fill:none;stroke:black;" points="843,-1024 724,-1024 "/>
<path style="fill:none;stroke:black;" d="M724,-1024C718,-1024 712,-1018 712,-1012"/>
<polyline style="fill:none;stroke:black;" points="712,-1012 712,-884 "/>
<path style="fill:none;stroke:black;" d="M712,-884C712,-878 718,-872 724,-872"/>
<text text-anchor="middle" x="783" y="-1006.9" style="font-family:Times New Roman;font-size:11.00;">Page</text>
<polyline style="fill:none;stroke:black;" points="712,-999 855,-999 "/>
<text text-anchor="start" x="719.5" y="-981.9" style="font-family:Times New Roman;font-size:11.00;">title :string</text>
<text text-anchor="start" x="719.5" y="-964.9" style="font-family:Times New Roman;font-size:11.00;">permalink :string</text>
<text text-anchor="start" x="719.5" y="-947.9" style="font-family:Times New Roman;font-size:11.00;">body :text</text>
<text text-anchor="start" x="719.5" y="-930.9" style="font-family:Times New Roman;font-size:11.00;">created_at :datetime</text>
<text text-anchor="start" x="719.5" y="-913.9" style="font-family:Times New Roman;font-size:11.00;">updated_at :datetime</text>
<text text-anchor="start" x="719.5" y="-896.9" style="font-family:Times New Roman;font-size:11.00;">restricted :boolean</text>
<text text-anchor="start" x="719.5" y="-879.9" style="font-family:Times New Roman;font-size:11.00;">hide_sidebar :boolean</text>
</g>
<!-- Password -->
<g id="node8" class="node"><title>Password</title>
<polyline style="fill:none;stroke:black;" points="884,-897 1022,-897 "/>
<path style="fill:none;stroke:black;" d="M1022,-897C1028,-897 1034,-903 1034,-909"/>
<polyline style="fill:none;stroke:black;" points="1034,-909 1034,-986 "/>
<path style="fill:none;stroke:black;" d="M1034,-986C1034,-992 1028,-998 1022,-998"/>
<polyline style="fill:none;stroke:black;" points="1022,-998 884,-998 "/>
<path style="fill:none;stroke:black;" d="M884,-998C878,-998 872,-992 872,-986"/>
<polyline style="fill:none;stroke:black;" points="872,-986 872,-909 "/>
<path style="fill:none;stroke:black;" d="M872,-909C872,-903 878,-897 884,-897"/>
<text text-anchor="middle" x="953" y="-980.9" style="font-family:Times New Roman;font-size:11.00;">Password</text>
<polyline style="fill:none;stroke:black;" points="872,-973 1034,-973 "/>
<text text-anchor="start" x="880" y="-956.4" style="font-family:Times New Roman;font-size:11.00;">reset_code :string</text>
<text text-anchor="start" x="880" y="-939.4" style="font-family:Times New Roman;font-size:11.00;">expiration_date :datetime</text>
<text text-anchor="start" x="880" y="-922.4" style="font-family:Times New Roman;font-size:11.00;">created_at :datetime</text>
<text text-anchor="start" x="880" y="-905.4" style="font-family:Times New Roman;font-size:11.00;">updated_at :datetime</text>
</g>
<!-- PasswordMailer -->
<g id="node9" class="node"><title>PasswordMailer</title>
<polygon style="fill:none;stroke:black;" points="970,-582 970,-632 1078,-632 1078,-582 970,-582"/>
<text text-anchor="middle" x="1024" y="-614.9" style="font-family:Times New Roman;font-size:11.00;">PasswordMailer</text>
<polyline style="fill:none;stroke:black;" points="970,-607 1078,-607 "/>
<text text-anchor="middle" x="1024" y="-589.9" style="font-family:Times New Roman;font-size:11.00;"> </text>
</g>
<!-- Product -->
<g id="node10" class="node"><title>Product</title>
<polyline style="fill:none;stroke:black;" points="1260,-906 1371,-906 "/>
<path style="fill:none;stroke:black;" d="M1371,-906C1377,-906 1383,-912 1383,-918"/>
<polyline style="fill:none;stroke:black;" points="1383,-918 1383,-978 "/>
<path style="fill:none;stroke:black;" d="M1383,-978C1383,-984 1377,-990 1371,-990"/>
<polyline style="fill:none;stroke:black;" points="1371,-990 1260,-990 "/>
<path style="fill:none;stroke:black;" d="M1260,-990C1254,-990 1248,-984 1248,-978"/>
<polyline style="fill:none;stroke:black;" points="1248,-978 1248,-918 "/>
<path style="fill:none;stroke:black;" d="M1248,-918C1248,-912 1254,-906 1260,-906"/>
<text text-anchor="middle" x="1315" y="-972.9" style="font-family:Times New Roman;font-size:11.00;">Product</text>
<polyline style="fill:none;stroke:black;" points="1248,-965 1383,-965 "/>
<text text-anchor="start" x="1255.5" y="-947.9" style="font-family:Times New Roman;font-size:11.00;">price :integer</text>
<text text-anchor="start" x="1255.5" y="-930.9" style="font-family:Times New Roman;font-size:11.00;">created_at :datetime</text>
<text text-anchor="start" x="1255.5" y="-913.9" style="font-family:Times New Roman;font-size:11.00;">updated_at :datetime</text>
</g>
<!-- Redirect -->
<g id="node11" class="node"><title>Redirect</title>
<polyline style="fill:none;stroke:black;" points="1412,-889 1523,-889 "/>
<path style="fill:none;stroke:black;" d="M1523,-889C1529,-889 1535,-895 1535,-901"/>
<polyline style="fill:none;stroke:black;" points="1535,-901 1535,-995 "/>
<path style="fill:none;stroke:black;" d="M1535,-995C1535,-1001 1529,-1007 1523,-1007"/>
<polyline style="fill:none;stroke:black;" points="1523,-1007 1412,-1007 "/>
<path style="fill:none;stroke:black;" d="M1412,-1007C1406,-1007 1400,-1001 1400,-995"/>
<polyline style="fill:none;stroke:black;" points="1400,-995 1400,-901 "/>
<path style="fill:none;stroke:black;" d="M1400,-901C1400,-895 1406,-889 1412,-889"/>
<text text-anchor="middle" x="1467" y="-989.9" style="font-family:Times New Roman;font-size:11.00;">Redirect</text>
<polyline style="fill:none;stroke:black;" points="1400,-982 1535,-982 "/>
<text text-anchor="start" x="1407.5" y="-964.9" style="font-family:Times New Roman;font-size:11.00;">slug :string</text>
<text text-anchor="start" x="1407.5" y="-947.9" style="font-family:Times New Roman;font-size:11.00;">url :string</text>
<text text-anchor="start" x="1407.5" y="-930.9" style="font-family:Times New Roman;font-size:11.00;">notes :text</text>
<text text-anchor="start" x="1407.5" y="-913.9" style="font-family:Times New Roman;font-size:11.00;">created_at :datetime</text>
<text text-anchor="start" x="1407.5" y="-896.9" style="font-family:Times New Roman;font-size:11.00;">updated_at :datetime</text>
</g>
<!-- Role -->
<g id="node12" class="node"><title>Role</title>
<polyline style="fill:none;stroke:black;" points="286,-923 350,-923 "/>
<path style="fill:none;stroke:black;" d="M350,-923C356,-923 362,-929 362,-935"/>
<polyline style="fill:none;stroke:black;" points="362,-935 362,-961 "/>
<path style="fill:none;stroke:black;" d="M362,-961C362,-967 356,-973 350,-973"/>
<polyline style="fill:none;stroke:black;" points="350,-973 286,-973 "/>
<path style="fill:none;stroke:black;" d="M286,-973C280,-973 274,-967 274,-961"/>
<polyline style="fill:none;stroke:black;" points="274,-961 274,-935 "/>
<path style="fill:none;stroke:black;" d="M274,-935C274,-929 280,-923 286,-923"/>
<text text-anchor="middle" x="318" y="-955.9" style="font-family:Times New Roman;font-size:11.00;">Role</text>
<polyline style="fill:none;stroke:black;" points="274,-948 362,-948 "/>
<text text-anchor="start" x="282" y="-930.9" style="font-family:Times New Roman;font-size:11.00;">name :string</text>
</g>
<!-- User -->
<g id="node16" class="node"><title>User</title>
<polyline style="fill:none;stroke:black;" points="212,-446 425,-446 "/>
<path style="fill:none;stroke:black;" d="M425,-446C431,-446 437,-452 437,-458"/>
<polyline style="fill:none;stroke:black;" points="437,-458 437,-756 "/>
<path style="fill:none;stroke:black;" d="M437,-756C437,-762 431,-768 425,-768"/>
<polyline style="fill:none;stroke:black;" points="425,-768 212,-768 "/>
<path style="fill:none;stroke:black;" d="M212,-768C206,-768 200,-762 200,-756"/>
<polyline style="fill:none;stroke:black;" points="200,-756 200,-458 "/>
<path style="fill:none;stroke:black;" d="M200,-458C200,-452 206,-446 212,-446"/>
<text text-anchor="middle" x="318" y="-750.9" style="font-family:Times New Roman;font-size:11.00;">User</text>
<polyline style="fill:none;stroke:black;" points="200,-743 437,-743 "/>
<text text-anchor="start" x="207.5" y="-725.9" style="font-family:Times New Roman;font-size:11.00;">login :string</text>
<text text-anchor="start" x="207.5" y="-708.9" style="font-family:Times New Roman;font-size:11.00;">identity_url :string</text>
<text text-anchor="start" x="207.5" y="-691.9" style="font-family:Times New Roman;font-size:11.00;">name :string</text>
<text text-anchor="start" x="207.5" y="-674.9" style="font-family:Times New Roman;font-size:11.00;">email :string</text>
<text text-anchor="start" x="207.5" y="-657.9" style="font-family:Times New Roman;font-size:11.00;">crypted_password :string</text>
<text text-anchor="start" x="207.5" y="-640.9" style="font-family:Times New Roman;font-size:11.00;">salt :string</text>
<text text-anchor="start" x="207.5" y="-623.9" style="font-family:Times New Roman;font-size:11.00;">remember_token :string</text>
<text text-anchor="start" x="207.5" y="-606.9" style="font-family:Times New Roman;font-size:11.00;">activation_code :string</text>
<text text-anchor="start" x="207.5" y="-589.9" style="font-family:Times New Roman;font-size:11.00;">state :string</text>
<text text-anchor="start" x="207.5" y="-572.9" style="font-family:Times New Roman;font-size:11.00;">remember_token_expires_at :datetime</text>
<text text-anchor="start" x="207.5" y="-555.9" style="font-family:Times New Roman;font-size:11.00;">activated_at :datetime</text>
<text text-anchor="start" x="207.5" y="-538.9" style="font-family:Times New Roman;font-size:11.00;">deleted_at :datetime</text>
<text text-anchor="start" x="207.5" y="-521.9" style="font-family:Times New Roman;font-size:11.00;">created_at :datetime</text>
<text text-anchor="start" x="207.5" y="-504.9" style="font-family:Times New Roman;font-size:11.00;">updated_at :datetime</text>
<text text-anchor="start" x="207.5" y="-487.9" style="font-family:Times New Roman;font-size:11.00;">enabled :boolean</text>
<text text-anchor="start" x="207.5" y="-470.9" style="font-family:Times New Roman;font-size:11.00;">profile :text</text>
<text text-anchor="start" x="207.5" y="-453.9" style="font-family:Times New Roman;font-size:11.00;">last_login_at :datetime</text>
</g>
<!-- Role&#45;&gt;User -->
<g id="edge12" class="edge"><title>Role&#45;&gt;User</title>
<path style="fill:none;stroke:black;" d="M318,-913C318,-880 318,-829 318,-778"/>
<polygon style="fill:black;stroke:black;" points="318,-913 313.5,-923 318,-918 318,-923 318,-923 318,-923 318,-918 322.5,-923 318,-913 318,-913"/>
<polygon style="fill:black;stroke:black;" points="318,-778 322.5,-768 318,-773 318,-768 318,-768 318,-768 318,-773 313.5,-768 318,-778 318,-778"/>
</g>
<!-- Server -->
<g id="node13" class="node"><title>Server</title>
<polyline style="fill:none;stroke:black;" points="1564,-812 1693,-812 "/>
<path style="fill:none;stroke:black;" d="M1693,-812C1699,-812 1705,-818 1705,-824"/>
<polyline style="fill:none;stroke:black;" points="1705,-824 1705,-1071 "/>
<path style="fill:none;stroke:black;" d="M1705,-1071C1705,-1077 1699,-1083 1693,-1083"/>
<polyline style="fill:none;stroke:black;" points="1693,-1083 1564,-1083 "/>
<path style="fill:none;stroke:black;" d="M1564,-1083C1558,-1083 1552,-1077 1552,-1071"/>
<polyline style="fill:none;stroke:black;" points="1552,-1071 1552,-824 "/>
<path style="fill:none;stroke:black;" d="M1552,-824C1552,-818 1558,-812 1564,-812"/>
<text text-anchor="middle" x="1628" y="-1065.9" style="font-family:Times New Roman;font-size:11.00;">Server</text>
<polyline style="fill:none;stroke:black;" points="1552,-1058 1705,-1058 "/>
<text text-anchor="start" x="1559.5" y="-1041.4" style="font-family:Times New Roman;font-size:11.00;">name :string</text>
<text text-anchor="start" x="1559.5" y="-1024.4" style="font-family:Times New Roman;font-size:11.00;">ip_address :string</text>
<text text-anchor="start" x="1559.5" y="-1007.4" style="font-family:Times New Roman;font-size:11.00;">vendor :string</text>
<text text-anchor="start" x="1559.5" y="-990.4" style="font-family:Times New Roman;font-size:11.00;">location :string</text>
<text text-anchor="start" x="1559.5" y="-973.4" style="font-family:Times New Roman;font-size:11.00;">primary_ns :string</text>
<text text-anchor="start" x="1559.5" y="-956.4" style="font-family:Times New Roman;font-size:11.00;">primary_ns_ip :string</text>
<text text-anchor="start" x="1559.5" y="-939.4" style="font-family:Times New Roman;font-size:11.00;">secondary_ns :string</text>
<text text-anchor="start" x="1559.5" y="-922.4" style="font-family:Times New Roman;font-size:11.00;">secondary_ns_ip :string</text>
<text text-anchor="start" x="1559.5" y="-905.4" style="font-family:Times New Roman;font-size:11.00;">max_accounts :integer</text>
<text text-anchor="start" x="1559.5" y="-888.4" style="font-family:Times New Roman;font-size:11.00;">whm_user :string</text>
<text text-anchor="start" x="1559.5" y="-871.4" style="font-family:Times New Roman;font-size:11.00;">whm_pass :string</text>
<text text-anchor="start" x="1559.5" y="-854.4" style="font-family:Times New Roman;font-size:11.00;">whm_key :text</text>
<text text-anchor="start" x="1559.5" y="-837.4" style="font-family:Times New Roman;font-size:11.00;">created_at :datetime</text>
<text text-anchor="start" x="1559.5" y="-820.4" style="font-family:Times New Roman;font-size:11.00;">updated_at :datetime</text>
</g>
<!-- Ticket -->
<g id="node14" class="node"><title>Ticket</title>
<polyline style="fill:none;stroke:black;" points="1734,-804 1866,-804 "/>
<path style="fill:none;stroke:black;" d="M1866,-804C1872,-804 1878,-810 1878,-816"/>
<polyline style="fill:none;stroke:black;" points="1878,-816 1878,-1080 "/>
<path style="fill:none;stroke:black;" d="M1878,-1080C1878,-1086 1872,-1092 1866,-1092"/>
<polyline style="fill:none;stroke:black;" points="1866,-1092 1734,-1092 "/>
<path style="fill:none;stroke:black;" d="M1734,-1092C1728,-1092 1722,-1086 1722,-1080"/>
<polyline style="fill:none;stroke:black;" points="1722,-1080 1722,-816 "/>
<path style="fill:none;stroke:black;" d="M1722,-816C1722,-810 1728,-804 1734,-804"/>
<text text-anchor="middle" x="1800" y="-1074.9" style="font-family:Times New Roman;font-size:11.00;">Ticket</text>
<polyline style="fill:none;stroke:black;" points="1722,-1067 1878,-1067 "/>
<text text-anchor="start" x="1730" y="-1049.9" style="font-family:Times New Roman;font-size:11.00;">subject :string</text>
<text text-anchor="start" x="1730" y="-1032.9" style="font-family:Times New Roman;font-size:11.00;">description :text</text>
<text text-anchor="start" x="1730" y="-1015.9" style="font-family:Times New Roman;font-size:11.00;">domain_name :string</text>
<text text-anchor="start" x="1730" y="-998.9" style="font-family:Times New Roman;font-size:11.00;">first_name :string</text>
<text text-anchor="start" x="1730" y="-981.9" style="font-family:Times New Roman;font-size:11.00;">last_name :string</text>
<text text-anchor="start" x="1730" y="-964.9" style="font-family:Times New Roman;font-size:11.00;">phone :string</text>
<text text-anchor="start" x="1730" y="-947.9" style="font-family:Times New Roman;font-size:11.00;">timezone :string</text>
<text text-anchor="start" x="1730" y="-930.9" style="font-family:Times New Roman;font-size:11.00;">priority :string</text>
<text text-anchor="start" x="1730" y="-913.9" style="font-family:Times New Roman;font-size:11.00;">cpanel_username :string</text>
<text text-anchor="start" x="1730" y="-896.9" style="font-family:Times New Roman;font-size:11.00;">cpanel_password :string</text>
<text text-anchor="start" x="1730" y="-879.9" style="font-family:Times New Roman;font-size:11.00;">email :string</text>
<text text-anchor="start" x="1730" y="-862.9" style="font-family:Times New Roman;font-size:11.00;">email_password :string</text>
<text text-anchor="start" x="1730" y="-845.9" style="font-family:Times New Roman;font-size:11.00;">department :string</text>
<text text-anchor="start" x="1730" y="-828.9" style="font-family:Times New Roman;font-size:11.00;">created_at :datetime</text>
<text text-anchor="start" x="1730" y="-811.9" style="font-family:Times New Roman;font-size:11.00;">updated_at :datetime</text>
</g>
<!-- TicketMailer -->
<g id="node15" class="node"><title>TicketMailer</title>
<polygon style="fill:none;stroke:black;" points="1096,-582 1096,-632 1187,-632 1187,-582 1096,-582"/>
<text text-anchor="middle" x="1141" y="-614.9" style="font-family:Times New Roman;font-size:11.00;">TicketMailer</text>
<polyline style="fill:none;stroke:black;" points="1096,-607 1187,-607 "/>
<text text-anchor="middle" x="1141" y="-589.9" style="font-family:Times New Roman;font-size:11.00;"> </text>
</g>
<!-- User&#45;&gt;Article -->
<g id="edge16" class="edge"><title>User&#45;&gt;Article</title>
<path style="fill:none;stroke:black;" d="M266,-436C264,-430 262,-423 260,-417"/>
<polygon style="fill:black;stroke:black;" points="266.126,-436.422 264.69,-447.293 267.563,-441.211 269,-446 269,-446 269,-446 267.563,-441.211 273.31,-444.707 266.126,-436.422 266.126,-436.422"/>
<ellipse style="fill:black;stroke:black;" cx="258.97" cy="-412.881" rx="4.00001" ry="4.00001"/>
</g>
<!-- UserMailer -->
<g id="node17" class="node"><title>UserMailer</title>
<polygon style="fill:none;stroke:black;" points="1204,-582 1204,-632 1286,-632 1286,-582 1204,-582"/>
<text text-anchor="middle" x="1245" y="-614.9" style="font-family:Times New Roman;font-size:11.00;">UserMailer</text>
<polyline style="fill:none;stroke:black;" points="1204,-607 1286,-607 "/>
<text text-anchor="middle" x="1245" y="-589.9" style="font-family:Times New Roman;font-size:11.00;"> </text>
</g>
<!-- UserObserver -->
<g id="node18" class="node"><title>UserObserver</title>
<polygon style="fill:none;stroke:black;" points="1958,-582 1958,-632 2055,-632 2055,-582 1958,-582"/>
<text text-anchor="middle" x="2006" y="-614.9" style="font-family:Times New Roman;font-size:11.00;">UserObserver</text>
<polyline style="fill:none;stroke:black;" points="1958,-607 2055,-607 "/>
<text text-anchor="middle" x="2006" y="-589.9" style="font-family:Times New Roman;font-size:11.00;"> </text>
</g>
<!-- ActionMailer::Base -->
<g id="node25" class="node"><title>ActionMailer::Base</title>
<ellipse style="fill:none;stroke:black;" cx="1141" cy="-948" rx="89.139" ry="18"/>
<text text-anchor="middle" x="1141" y="-943.9" style="font-family:Times New Roman;font-size:11.00;">ActionMailer::Base</text>
</g>
<!-- ActionMailer::Base&#45;&gt;PasswordMailer -->
<g id="edge10" class="edge"><title>ActionMailer::Base&#45;&gt;PasswordMailer</title>
<path style="fill:none;stroke:black;" d="M1132,-920C1109,-856 1054,-695 1033,-632"/>
<polygon style="fill:none;stroke:black;" points="1128.77,-921.427 1135,-930 1135.48,-919.416 1128.77,-921.427"/>
</g>
<!-- ActionMailer::Base&#45;&gt;TicketMailer -->
<g id="edge14" class="edge"><title>ActionMailer::Base&#45;&gt;TicketMailer</title>
<path style="fill:none;stroke:black;" d="M1141,-920C1141,-854 1141,-694 1141,-632"/>
<polygon style="fill:none;stroke:black;" points="1137.5,-920 1141,-930 1144.5,-920 1137.5,-920"/>
</g>
<!-- ActionMailer::Base&#45;&gt;UserMailer -->
<g id="edge18" class="edge"><title>ActionMailer::Base&#45;&gt;UserMailer</title>
<path style="fill:none;stroke:black;" d="M1150,-920C1169,-855 1218,-695 1237,-632"/>
<polygon style="fill:none;stroke:black;" points="1146.52,-919.416 1147,-930 1153.23,-921.427 1146.52,-919.416"/>
</g>
<!-- ActiveRecord::Observer -->
<g id="node31" class="node"><title>ActiveRecord::Observer</title>
<ellipse style="fill:none;stroke:black;" cx="2006" cy="-948" rx="109.791" ry="18"/>
<text text-anchor="middle" x="2006" y="-943.9" style="font-family:Times New Roman;font-size:11.00;">ActiveRecord::Observer</text>
</g>
<!-- ActiveRecord::Observer&#45;&gt;UserObserver -->
<g id="edge20" class="edge"><title>ActiveRecord::Observer&#45;&gt;UserObserver</title>
<path style="fill:none;stroke:black;" d="M2006,-920C2006,-854 2006,-694 2006,-632"/>
<polygon style="fill:none;stroke:black;" points="2002.5,-920 2006,-930 2009.5,-920 2002.5,-920"/>
</g>
</g>
</svg>
